HIERARCHY
ROOT Hips
{
  OFFSET 49.562 94.0745 13.1484
  CHANNELS 6 Xposition Yposition Zposition Zrotation Xrotation Yrotation
  JOINT spine
  {
    OFFSET 0 7.80059 0.448573
    CHANNELS 3 Zrotation Xrotation Yrotation
    JOINT spine1
    {
      OFFSET 0 10.1364 0
      CHANNELS 3 Zrotation Xrotation Yrotation
      JOINT spine2
      {
        OFFSET 0 9.71251 0
        CHANNELS 3 Zrotation Xrotation Yrotation
        JOINT Neck
        {
          OFFSET 0 24.9361 1.18887
          CHANNELS 3 Zrotation Xrotation Yrotation
          JOINT Head
          {
            OFFSET 0 7.53384 0
            CHANNELS 3 Zrotation Xrotation Yrotation
            End Site
            {
              OFFSET 0 18.2361 -6.01402
            }
          }
        }
        JOINT RightShoulder
        {
          OFFSET -4.08965 10.4888 -0.569457
          CHANNELS 3 Zrotation Xrotation Yrotation
          JOINT RightArm
          {
            OFFSET 0 13.757 0
            CHANNELS 3 Zrotation Xrotation Yrotation
            JOINT RightArmRoll
            {
              OFFSET 0 6.94478 0
              CHANNELS 3 Zrotation Xrotation Yrotation
              JOINT RightForeArm
              {
                OFFSET 0 20.2277 0
                CHANNELS 3 Zrotation Xrotation Yrotation
                JOINT RightForeArmRoll
                {
                  OFFSET 0 7.79312 0
                  CHANNELS 3 Zrotation Xrotation Yrotation
                  JOINT RightHand
                  {
                    OFFSET 0 15.6391 0
                    CHANNELS 3 Zrotation Xrotation Yrotation
                    End Site
                    {
                      OFFSET 0 0 0
                    }
                  }
                }
              }
            }
          }
        }
        JOINT LeftShoulder
        {
          OFFSET 4.08965 10.4888 -0.569457
          CHANNELS 3 Zrotation Xrotation Yrotation
          JOINT LeftArm
          {
            OFFSET 0 13.757 0
            CHANNELS 3 Zrotation Xrotation Yrotation
            JOINT LeftArmRoll
            {
              OFFSET 0 6.94478 0
              CHANNELS 3 Zrotation Xrotation Yrotation
              JOINT LeftForeArm
              {
                OFFSET 0 20.2277 0
                CHANNELS 3 Zrotation Xrotation Yrotation
                JOINT LeftForeArmRoll
                {
                  OFFSET 0 7.79312 0
                  CHANNELS 3 Zrotation Xrotation Yrotation
                  JOINT LeftHand
                  {
                    OFFSET 0 15.6391 0
                    CHANNELS 3 Zrotation Xrotation Yrotation
                    End Site
                    {
                      OFFSET 0 0 0
                    }
                  }
                }
              }
            }
          }
        }
      }
    }
  }
  JOINT RightUpLeg
  {
    OFFSET -6.91416 -1.26788 -1.06358
    CHANNELS 3 Zrotation Xrotation Yrotation
    JOINT RightUpLegRoll
    {
      OFFSET 0 18.3378 0
      CHANNELS 3 Zrotation Xrotation Yrotation
      JOINT RightLeg
      {
        OFFSET 0 -22.7085 0
        CHANNELS 3 Zrotation Xrotation Yrotation
        JOINT RightLegRoll
        {
          OFFSET 0 22.7828 0
          CHANNELS 3 Zrotation Xrotation Yrotation
          JOINT RightFoot
          {
            OFFSET 0 18.9629 0
            CHANNELS 3 Zrotation Xrotation Yrotation
            JOINT RightToeBase
            {
              OFFSET 0 15.852 0
              CHANNELS 3 Zrotation Xrotation Yrotation
              End Site
              {
                OFFSET 0.00671906 7.67701 -0.884892
              }
            }
          }
        }
      }
    }
  }
  JOINT LeftUpLeg
  {
    OFFSET 6.91416 -1.26788 -1.06358
    CHANNELS 3 Zrotation Xrotation Yrotation
    JOINT LeftUpLegRoll
    {
      OFFSET 0 18.3379 0
      CHANNELS 3 Zrotation Xrotation Yrotation
      JOINT LeftLeg
      {
        OFFSET 0 22.7084 0
        CHANNELS 3 Zrotation Xrotation Yrotation
        JOINT LeftLegRoll
        {
          OFFSET 0 22.9934 0
          CHANNELS 3 Zrotation Xrotation Yrotation
          JOINT LeftFoot
          {
            OFFSET 0 18.7522 0
            CHANNELS 3 Zrotation Xrotation Yrotation
            JOINT LeftToeBase
            {
              OFFSET 0 15.852 0
              CHANNELS 3 Zrotation Xrotation Yrotation
              End Site
              {
                OFFSET -0.030112 7.67701 -0.884893
              }
            }
          }
        }
      }
    }
  }
}
MOTION
Frames: 5
Frame Time: 0.00208333
50.052 94.1744 13.4428 -0.465595 -7.21519 2.26644 -0.288334 -0.76796 0.13515 -0.584174 2.46631 0.318468 -0.588708 4.11131 0.328617 0.811875 17.5338 -2.24213 4.34947 -15.3149 -0.955313 84.6771 -4.06924 -4.27068 85.8708 0.966326 18.9694 -3.57106e-006 4.2478e-007 -1.84169e-006 11.0517 17.3328 -2.8661 2.33507e-006 -5.6766e-006 -3.00656 8.02894 -4.95148 0.697701 -67.7565 1.12836 0.504118 -104.403 -4.06704 -15.3034 1.45682e-006 5.58275e-007 1.66602e-006 -6.3357 16.2749 2.16669 6.89473e-006 4.13905e-006 3 -8.02941 -4.95144 -0.697658 179.254 -4.51018 0.225176 180 7.01533e-015 178.863 178.102 9.09106 179.682 -5.9511e-008 -3.5271e-006 0.144697 -19.5342 69.7132 21.0448 8.13649 25.2327 -3.48774 -179.741 -2.55158 5.93204 4.54188e-006 -4.6773e-006 -1.50845 -5.34229 -13.1462 -0.423471 -8.91502e-007 -2.57141e-006 -0.280817 27.1889 72.7512 -25.1372 -8.13649 25.2327 3.48774 
50.0567 94.1756 13.4413 -0.465728 -7.21956 2.26728 -0.289475 -0.766724 0.135107 -0.58573 2.46911 0.317312 -0.590246 4.11412 0.327477 0.820959 17.5331 -2.24977 4.35479 -15.323 -0.958836 84.6708 -4.07033 -4.27066 85.8946 0.925186 19.0489 -3.57106e-006 4.2478e-007 -1.84169e-006 11.0033 17.3879 -2.86926 2.33507e-006 -5.6766e-006 -3.00656 8.02894 -4.95148 0.697701 -67.7567 1.13026 0.503153 -104.406 -4.07621 -15.3054 1.45682e-006 5.58275e-007 1.66602e-006 -6.33828 16.2527 2.16544 6.89473e-006 4.13905e-006 3 -8.02941 -4.95144 -0.697658 179.254 -4.52904 0.226098 180 7.01533e-015 178.863 178.102 9.07078 179.681 -5.9511e-008 -3.5271e-006 0.144374 -19.5283 69.7076 21.0395 8.13649 25.2327 -3.48774 -179.738 -2.5413 5.92631 4.54188e-006 -4.6773e-006 -1.50845 -5.34932 -13.1585 -0.426237 -8.91502e-007 -2.57141e-006 -0.280834 27.1889 72.7511 -25.1373 -8.13649 25.2327 3.48774 
50.0436 94.1834 13.4801 -0.465759 -7.22415 2.26816 -0.290624 -0.765427 0.135062 -0.587263 2.47206 0.316115 -0.591759 4.11706 0.326295 0.82977 17.5324 -2.25739 4.3605 -15.3316 -0.962306 84.664 -4.0715 -4.27063 85.9191 0.882602 19.128 -3.57106e-006 4.2478e-007 -1.84169e-006 10.9551 17.445 -2.87274 2.33507e-006 -5.6766e-006 -3.00656 8.02894 -4.95148 0.697701 -67.7572 1.13214 0.502256 -104.409 -4.08597 -15.3071 1.45682e-006 5.58275e-007 1.66602e-006 -6.34145 16.2307 2.16432 6.89473e-006 4.13905e-006 3 -8.02941 -4.95144 -0.697658 179.254 -4.54878 0.227294 180 7.01533e-015 178.863 178.102 9.04957 179.68 -5.9511e-008 -3.5271e-006 0.144055 -19.5224 69.7018 21.0339 8.13649 25.2327 -3.48774 -179.734 -2.53019 5.9203 4.54188e-006 -4.6773e-006 -1.50845 -5.35683 -13.1718 -0.429198 -8.91502e-007 -2.57141e-006 -0.280858 27.1888 72.7509 -25.1374 -8.13649 25.2327 3.48774 
50.0486 94.1825 13.4702 -0.465719 -7.22889 2.26907 -0.291778 -0.764088 0.135014 -0.588779 2.4751 0.31489 -0.593255 4.12011 0.325083 0.83839 17.5317 -2.26498 4.36649 -15.3407 -0.965739 84.6567 -4.07271 -4.27059 85.9442 0.83902 19.2069 -3.57106e-006 4.2478e-007 -1.84169e-006 10.9071 17.5036 -2.87645 2.33507e-006 -5.6766e-006 -3.00656 8.02894 -4.95148 0.697701 -67.7581 1.134 0.501407 -104.411 -4.09617 -15.3086 1.45682e-006 5.58275e-007 1.66602e-006 -6.34505 16.2088 2.16328 6.89473e-006 4.13905e-006 3 -8.02941 -4.95144 -0.697658 179.253 -4.56914 0.228682 180 7.01533e-015 178.863 178.102 9.02772 179.679 -5.9511e-008 -3.5271e-006 0.14374 -19.5163 69.6959 21.0282 8.13649 25.2327 -3.48774 -179.73 -2.51849 5.91408 4.54188e-006 -4.6773e-006 -1.50845 -5.36468 -13.1857 -0.432296 -8.91502e-007 -2.57141e-006 -0.280888 27.1888 72.7507 -25.1375 -8.13649 25.2327 3.48774 
50.0547 94.179 13.4549 -0.465637 -7.23372 2.27 -0.292935 -0.762724 0.134965 -0.590286 2.47821 0.313648 -0.594741 4.12321 0.323855 0.8469 17.531 -2.27256 4.37264 -15.35 -0.969152 84.6493 -4.07394 -4.27054 85.9697 0.794886 19.2856 -3.57106e-006 4.2478e-007 -1.84169e-006 10.8592 17.5629 -2.88029 2.33507e-006 -5.6766e-006 -3.00656 8.02894 -4.95148 0.697701 -67.7591 1.13584 0.500586 -104.413 -4.1066 -15.3099 1.45682e-006 5.58275e-007 1.66602e-006 -6.34889 16.187 2.1623 6.89473e-006 4.13905e-006 3 -8.02941 -4.95144 -0.697658 179.252 -4.58984 0.23018 180 7.01533e-015 178.863 178.102 9.00551 179.679 -5.9511e-008 -3.5271e-006 0.143427 -19.5102 69.6898 21.0223 8.13649 25.2327 -3.48774 -179.726 -2.50645 5.90775 4.54188e-006 -4.6773e-006 -1.50845 -5.37272 -13.1999 -0.435472 -8.91502e-007 -2.57141e-006 -0.280922 27.1887 72.7505 -25.1376 -8.13649 25.2327 3.48774 
